<svg fill="none" xmlns="http://www.w3.org/2000/svg" viewBox="0 0 26 26">
  <path d="m13 25.001-5.88-6m5.88 6 5.88-6m-5.88 6v-6m0 6c-4.442 0-8.32-2.413-10.395-6m10.395 6c4.442 0 8.32-2.413 10.395-6M13 1.001l-5.88 6m5.88-6 5.88 6m-5.88-6c4.442 0 8.32 2.413 10.395 6M13 1.001v6m0-6c-4.442 0-8.32 2.413-10.395 6m4.515 0a8.572 8.572 0 0 0 0 12m0-12H13m-5.88 0H2.605m4.515 12H13m-5.88 0H2.605m16.275 0a8.572 8.572 0 0 0 0-12m0 12H13m5.88 0h4.515m-4.515-12h4.515m-4.515 0H13m10.395 0a11.945 11.945 0 0 1 1.605 6c0 2.186-.584 4.235-1.605 6M13 7.001v12m-10.395-12a11.945 11.945 0 0 0-1.605 6c0 2.186.584 4.235 1.605 6" stroke="currentColor" stroke-width="2" vector-effect="non-scaling-stroke"/>
</svg>
