<svg fill="none" xmlns="http://www.w3.org/2000/svg" viewBox="0 0 24 24">
  <path d="M16.969 16.928a2.561 2.561 0 0 0 1.901.677 2.501 2.501 0 0 0 1.531-.475c.362-.235.636-.584.779-.99h2.585a5.091 5.091 0 0 1-1.9 2.896 5.293 5.293 0 0 1-3.091.88 5.84 5.84 0 0 1-2.284-.433 4.872 4.872 0 0 1-1.723-1.21 5.657 5.657 0 0 1-1.08-1.875 7.057 7.057 0 0 1-.383-2.393c-.005-.8.129-1.595.396-2.349a5.313 5.313 0 0 1 5.088-3.604 4.87 4.87 0 0 1 2.376.563c.661.362 1.231.87 1.668 1.485a6.2 6.2 0 0 1 .943 2.133c.194.821.263 1.666.205 2.508h-7.699c-.063.79.184 1.574.688 2.187ZM6.947 4.085a8.065 8.065 0 0 1 1.928.198 4.29 4.29 0 0 1 1.49.638c.418.303.748.711.958 1.182.241.58.357 1.203.341 1.83a3.506 3.506 0 0 1-.506 1.961 3.726 3.726 0 0 1-1.503 1.287 3.588 3.588 0 0 1 2.027 1.437c.464.747.697 1.615.67 2.494.016.7-.129 1.396-.423 2.032a3.946 3.946 0 0 1-1.163 1.413 5.115 5.115 0 0 1-1.683.807 7.137 7.137 0 0 1-1.928.26H0V4.084h6.947Zm-.235 12.9c.308.004.616-.029.916-.099.274-.06.534-.173.766-.332.228-.158.411-.37.534-.619.142-.317.208-.663.191-1.009a2.08 2.08 0 0 0-.642-1.715 2.617 2.617 0 0 0-1.696-.505h-3.54v4.28h3.471Zm13.635-5.967a2.129 2.129 0 0 0-1.654-.619 2.336 2.336 0 0 0-1.163.26 2.472 2.472 0 0 0-.738.62c-.18.236-.315.504-.396.791-.074.24-.12.485-.137.734h4.769a3.239 3.239 0 0 0-.679-1.785h-.002ZM6.534 10.37c.51.02 1.011-.132 1.423-.433.399-.355.607-.88.56-1.413a1.916 1.916 0 0 0-.178-.89 1.298 1.298 0 0 0-.495-.534 1.851 1.851 0 0 0-.711-.274 3.966 3.966 0 0 0-.835-.073H3.241v3.631h3.293v-.014ZM21.62 5.123h-5.976V6.65h5.976V5.123Z" fill="currentColor"/>
</svg>