<svg fill="none" xmlns="http://www.w3.org/2000/svg" viewBox="0 0 24 24">
  <path d="M12 .001C5.37.001 0 5.506 0 12.304c0 5.445 3.435 10.043 8.205 11.672.6.108.824-.26.824-.584 0-.292-.014-1.26-.014-2.291C6 21.67 5.22 20.348 4.98 19.656c-.136-.354-.72-1.446-1.232-1.738-.42-.231-1.02-.8-.014-.815.945-.015 1.62.892 1.846 1.261 1.08 1.861 2.804 1.337 3.494 1.014.104-.799.42-1.337.765-1.645-2.67-.307-5.46-1.369-5.46-6.075 0-1.337.465-2.444 1.23-3.306-.12-.308-.54-1.57.12-3.26 0 0 1.005-.324 3.3 1.26.96-.276 1.98-.414 3-.414s2.04.139 3 .415c2.296-1.6 3.3-1.262 3.3-1.262.66 1.692.24 2.953.12 3.261.765.861 1.23 1.953 1.23 3.306 0 4.721-2.805 5.767-5.475 6.075.435.385.81 1.123.81 2.276 0 1.646-.015 2.968-.015 3.383 0 .323.225.709.824.585C20.566 22.348 24 17.733 24 12.304 24 5.506 18.63.001 12 .001Z" fill="currentColor"/>
</svg>