<svg fill="none" xmlns="http://www.w3.org/2000/svg" viewBox="0 0 24 24">
  <g clip-path="url(#a)">
    <path d="M20.447 20.453h-3.554v-5.569c0-1.328-.027-3.037-1.852-3.037-1.853 0-2.136 1.445-2.136 2.939v5.667H9.351V9.001h3.414v1.561h.046c.477-.9 1.637-1.85 3.37-1.85 3.601 0 4.267 2.37 4.267 5.455l-.001 6.286ZM5.337 7.434a2.062 2.062 0 0 1-2.063-2.065 2.064 2.064 0 1 1 2.063 2.065Zm1.782 13.019H3.555V9.001h3.564v11.452ZM22.225.001H1.771C.792.001 0 .775 0 1.73v20.542c0 .956.792 1.729 1.771 1.729h20.451c.978 0 1.778-.773 1.778-1.729V1.73c0-.955-.8-1.729-1.778-1.729h.003Z" fill="currentColor"/>
  </g>
  <defs>
    <clipPath id="a">
      <path fill="currentColor" d="M0 0h24v24H0z"/>
    </clipPath>
  </defs>
</svg>
