<svg width="40" height="40" viewBox="0 0 40 40" fill="none" xmlns="http://www.w3.org/2000/svg">
<path d="M32.4688 7.53125H14.0938L18.6875 12.4531L17.7031 13.1094L13.1094 17.375L10.4844 19.0156L8.51562 18.3594L6.875 17.375L6.54688 14.4219L5.23438 15.4062L4.57812 18.3594L5.23438 20.3281L7.53125 22.625L10.8125 22.9531V24.2656L8.84375 25.5781L8.51562 26.2344L10.1562 26.5625L14.0938 25.9062L13.1094 29.1875L13.7656 31.4844L14.75 31.1562L16.7188 28.8594V29.8438L17.7031 33.125L20.6562 35.4219L23.9375 35.0938L25.5781 33.4531H23.2812L21.6406 32.1406L20.6562 29.5156L21.3125 27.875L27.875 21.3125L32.4688 25.9062V7.53125Z" fill="white"/>
<path fill-rule="evenodd" clip-rule="evenodd" d="M17.8235 12.1894C17.3045 12.6232 16.803 13.0816 16.3208 13.5638L12.3174 17.5672C11.1239 18.7607 9.18894 18.7607 7.99547 17.5672C6.80245 16.3742 6.80201 14.4402 7.99414 13.2466L7.99547 13.2453L9.30797 11.9328L8.37989 11.0047L7.0674 12.3172L7.06581 12.3188L5.42677 13.9578C3.17708 16.2075 3.17708 19.855 5.42677 22.1047C6.69327 23.3712 8.40278 23.9247 10.0565 23.7652L9.6919 24.1298C8.49843 25.3232 6.56344 25.3232 5.36997 24.1298L4.44189 25.0578L4.44439 25.0603C6.79786 27.4118 10.2405 28.0093 13.1475 26.8527C11.9909 29.7606 12.5892 33.2045 14.9426 35.5578L15.8707 34.6298C14.6772 33.4363 14.6772 31.5013 15.8707 30.3078L16.235 29.9435C16.0755 31.5973 16.629 33.3069 17.8955 34.5734C20.1452 36.8231 23.7927 36.8231 26.0423 34.5734L28.9955 31.6203L28.0674 30.6922L26.7549 32.0047C25.5614 33.1982 23.6264 33.1982 22.433 32.0047C21.2395 30.8112 21.2395 28.8762 22.433 27.6828L26.4364 23.6793C26.9186 23.1972 27.377 22.6957 27.8108 22.1766L33.1247 27.4906V7.67412C33.125 7.62652 33.1252 7.57889 33.1252 7.53125H33.1247V6.875H32.4689H12.5092L17.8235 12.1894ZM18.2239 20.8485L18.2235 20.8489L18.2231 20.8485L14.9419 24.1298C13.359 25.7127 11.1872 26.3476 9.13174 26.0347C9.67379 25.8216 10.1818 25.496 10.62 25.0578L13.5303 22.1475C13.5448 22.1333 13.5592 22.119 13.5736 22.1047L16.5267 19.1515L15.5986 18.2235L15.5984 18.2237L15.5981 18.2235L12.6074 21.2143C10.8674 22.9136 8.07931 22.901 6.35484 21.1766C4.8321 19.6538 4.64418 17.3017 5.79109 15.5743C5.83169 16.6356 6.25713 17.685 7.06739 18.4953C8.77342 20.2013 11.5394 20.2013 13.2455 18.4953L17.2489 14.4918C21.1281 10.6126 26.3356 8.36702 31.8024 8.19781C31.6332 13.6646 29.3876 18.872 25.5083 22.7513L21.5049 26.7547C19.7989 28.4607 19.7989 31.2268 21.5049 32.9328C22.3152 33.7431 23.3645 34.1685 24.4259 34.2091C22.6984 35.356 20.3463 35.1681 18.8236 33.6453C17.0967 31.9184 17.0865 29.1248 18.7932 27.3854L21.777 24.4016L20.8489 23.4735L20.8488 23.4736L20.8486 23.4735L17.8955 26.4266L17.8608 26.4616L14.9426 29.3798C14.5045 29.8179 14.1789 30.3259 13.9658 30.868C13.6528 28.8126 14.2878 26.6407 15.8707 25.0578L19.152 21.7766L18.2239 20.8485ZM18.6871 18.6875C19.412 18.6875 19.9996 18.0999 19.9996 17.375C19.9996 16.6501 19.412 16.0625 18.6871 16.0625C17.9623 16.0625 17.3746 16.6501 17.3746 17.375C17.3746 18.0999 17.9623 18.6875 18.6871 18.6875ZM23.9371 21.3125C23.9371 22.0374 23.3495 22.625 22.6246 22.625C21.8998 22.625 21.3121 22.0374 21.3121 21.3125C21.3121 20.5876 21.8998 20 22.6246 20C23.3495 20 23.9371 20.5876 23.9371 21.3125Z" fill="#161616"/>
</svg>
