<svg fill="none" xmlns="http://www.w3.org/2000/svg" viewBox="0 0 40 40">
  <path d="M32.469 7.531H14.094l4.594 4.922-.985.656-4.594 4.266-2.625 1.64-1.968-.656-1.641-.984-.328-2.953-1.313.984-.656 2.953.656 1.97 2.297 2.296 3.282.328v1.313l-1.97 1.312-.327.656 1.64.328 3.938-.656-.985 3.282.657 2.296.984-.328 1.969-2.297v.985l.984 3.281 2.953 2.297 3.282-.328 1.64-1.64h-2.297l-1.64-1.313-.985-2.625.657-1.641 6.562-6.563 4.594 4.594V7.531Z" fill="#fff"/>
  <path fill-rule="evenodd" clip-rule="evenodd" d="M17.823 12.19a22.84 22.84 0 0 0-1.502 1.374l-4.004 4.003a3.056 3.056 0 0 1-4.323-4.32l.001-.002 1.313-1.312-.928-.928-1.313 1.312-.001.002-1.64 1.639a5.76 5.76 0 0 0 4.63 9.807l-.364.365a3.056 3.056 0 0 1-4.322 0l-.928.928.002.002a8.083 8.083 0 0 0 8.704 1.793 8.083 8.083 0 0 0 1.795 8.705l.928-.928a3.056 3.056 0 0 1 0-4.322l.364-.364a5.76 5.76 0 0 0 9.807 4.63l2.953-2.954-.928-.928-1.312 1.313a3.056 3.056 0 1 1-4.322-4.322l4.003-4.004c.483-.482.941-.983 1.375-1.502l5.314 5.314V6.875H12.509l5.314 5.314Zm.4 8.659-3.281 3.28a6.759 6.759 0 0 1-5.81 1.906 4.354 4.354 0 0 0 1.488-.977l2.91-2.91.044-.043 2.953-2.954-.928-.927-2.992 2.99a4.448 4.448 0 0 1-6.816-5.64 4.369 4.369 0 0 0 7.454 2.921l4.004-4.003a21.525 21.525 0 0 1 14.553-6.294 21.524 21.524 0 0 1-6.294 14.553l-4.003 4.004a4.369 4.369 0 0 0 2.92 7.454 4.45 4.45 0 0 1-5.632-6.824l2.984-2.983-.928-.928-2.954 2.953-.034.035-2.918 2.918a4.353 4.353 0 0 0-.977 1.488 6.759 6.759 0 0 1 1.905-5.81l3.281-3.281-.928-.928Zm.464-2.162a1.312 1.312 0 1 0 0-2.624 1.312 1.312 0 0 0 0 2.625Zm5.25 2.625a1.312 1.312 0 1 1-2.625 0 1.312 1.312 0 0 1 2.625 0Z" fill="#161616"/>
</svg>